<svg width="506" height="228" viewBox="0 0 506 228" fill="none" xmlns="http://www.w3.org/2000/svg">
<g clip-path="url(#clip0_557_28)">
<path d="M505.825 223.245C504.869 220.347 504.979 217.387 505.196 214.419C505.32 212.598 505.622 210.792 505.512 208.954C505.357 206.298 503.803 205.171 501.225 205.893C500.371 206.169 499.582 206.613 498.904 207.2C497.825 208.09 496.819 209.064 495.894 210.112C494.961 211.135 494.044 212.17 493.093 213.213C492.924 212.855 493.071 212.598 493.124 212.331C493.587 210.053 494.114 207.775 493.88 205.425C493.714 203.75 492.715 202.944 491.06 203.074C490.12 203.151 489.248 203.595 488.631 204.308C487.679 205.38 486.922 206.611 486.395 207.945C484.638 212.135 483.417 216.529 482.759 221.024C482.409 223.456 482.545 225.762 485.063 227.146H486.784C487.76 226.715 488.431 225.959 489.04 225.125C491.373 221.969 493.917 218.975 496.656 216.164C496.715 215.989 496.901 215.755 496.988 215.84C497.24 216.091 497.101 216.404 496.941 216.671C496.842 218.673 496.675 220.671 497.313 222.633C498.545 226.43 501.4 227.56 504.855 225.59C505.949 224.973 506.228 224.457 505.825 223.245Z" fill="black"/>
<path d="M125.028 101.148C132.496 96.6066 140.541 93.458 149.002 91.3242C167.916 86.5324 186.924 82.1464 205.94 77.7942C237.448 70.5782 269.06 63.8075 300.554 56.5182C314.092 53.3894 327.594 50.1732 341.062 46.7738C340.958 46.2974 314.253 51.0865 301.558 53.319C284.133 56.3858 266.682 59.291 249.206 62.0345C235.298 64.205 221.365 66.2035 207.392 67.9539C196.618 69.3013 185.827 70.4861 175.018 71.5084C164.453 72.4968 153.872 73.2814 143.276 73.862C130.42 74.578 117.553 74.9895 104.68 75.1389C86.5305 75.3644 68.389 74.9783 50.2446 74.2933C44.0395 74.0594 37.8343 73.7831 31.6574 73.4195C21.3146 72.8078 10.9774 72.1172 0.631787 71.4464C0.0874278 71.4125 -0.0620594 71.514 0.022556 72.0693C0.603582 75.9254 1.23256 79.7702 2.32974 83.5219C4.30409 90.2869 8.04691 95.5693 14.74 98.4106C17.3172 99.4824 20.0002 100.28 22.7446 100.79C29.9595 102.199 37.2702 102.388 44.5867 102.441C50.0387 102.484 55.4851 102.238 60.9456 102.095C65.7546 101.968 68.6033 104.24 69.7061 108.936C70.7272 113.28 70.2702 117.629 69.5792 121.953C68.4849 128.966 66.5359 135.765 64.3979 142.53C60.2631 155.595 55.2313 168.333 50.4392 181.161C48.6567 185.939 46.5215 190.618 46.1351 195.818C45.571 203.322 46.9079 210.388 51.0936 216.728C54.8392 222.396 60.0374 225.683 67.0295 225.748C67.9772 225.748 68.4567 225.491 68.8431 224.567C74.7069 210.496 79.6879 196.097 84.5477 181.665C90.5949 163.676 96.532 145.647 102.949 127.774C107.14 116.121 114.603 107.49 125.028 101.148Z" fill="#2670B7"/>
<path d="M158.795 189.648C167.392 187.858 175.258 184.357 182.487 179.41C183.285 178.866 183.333 178.421 182.896 177.702C182.363 176.811 181.915 175.867 181.328 175.016C178.507 170.915 174.953 167.473 171.343 164.085C170.968 163.732 170.663 163.803 170.291 163.972C168.212 164.849 166.077 165.607 164.066 166.613C156.691 170.294 149.05 170.224 141.325 168.194C135.514 166.67 131.518 163.188 130.282 157.029C130.09 156.077 130.367 155.989 131.182 155.989C142.729 155.969 154.277 155.934 165.826 155.885C176.3 155.851 186.771 155.824 197.241 155.803C197.763 155.803 198.245 155.871 198.651 155.316C203.616 148.649 205.587 141.222 204.05 133.047C202.242 123.438 196.911 116.076 188.991 110.52C181.728 105.424 173.445 103.808 164.484 103.659C156.993 103.735 149.599 105.359 142.766 108.428C132 113.192 123.16 120.464 115.562 129.338C110.965 134.708 107.1 140.551 104.844 147.307C101.552 157.173 102.339 166.512 108.683 175.021C113.074 180.913 119.003 184.788 125.789 187.387C136.544 191.506 147.58 191.982 158.795 189.648ZM137.562 137.318C143 131.514 149.811 128.25 157.54 126.784C161.206 126.088 164.89 126.009 168.483 127.227C173.639 128.974 175.63 133.03 175.577 137.805C175.577 138.606 175.103 138.527 174.592 138.527C170.433 138.527 166.274 138.527 162.115 138.527C154.048 138.512 145.981 138.496 137.915 138.479C137.568 138.479 137.223 138.451 136.86 138.434C136.893 137.862 137.286 137.614 137.562 137.318Z" fill="#2671B7"/>
<path d="M344.385 133.487C344.692 130.057 344.766 126.609 343.558 123.292C341.257 116.966 336.789 112.597 330.897 109.595C325.321 106.757 319.333 105.449 313.128 105.009C304.443 104.392 295.894 105.19 287.729 108.248C273.61 113.536 262.838 122.937 255.192 135.852C249.898 144.79 246.812 154.38 247.901 164.916C248.826 173.863 253.006 180.825 261.058 185.211C264.984 187.348 269.238 188.428 273.66 188.876C281.013 189.642 288.254 188.822 295.443 187.289C295.738 187.256 296.015 187.129 296.231 186.925C296.448 186.722 296.592 186.454 296.642 186.161C298.537 179.639 300.463 173.124 302.418 166.619C302.675 165.773 302.531 165.587 301.662 165.68C298.385 166.027 295.105 166.365 291.819 166.624C288.412 166.906 285.01 166.87 281.665 166.086C276.557 164.891 273.674 161.895 272.921 156.846C272.559 154.536 272.655 152.177 273.203 149.904C275.53 140.72 281.245 134.147 289.345 129.549C294.857 126.418 300.881 126.285 306.909 127.376C313.568 128.577 316.679 132.537 316.78 139.277C316.837 143.003 316.103 146.606 315.142 150.174C313.19 157.399 310.347 164.324 307.808 171.351C305.938 176.532 304.085 181.716 303.239 187.196C303.09 188.16 303.239 188.492 304.311 188.473C308.26 188.405 312.208 188.447 316.157 188.447V188.521C320.137 188.521 324.119 188.495 328.099 188.54C328.917 188.54 329.275 188.301 329.563 187.54C332.02 181.056 334.358 174.523 336.434 167.901C339.965 156.646 343.33 145.326 344.385 133.487Z" fill="#2671B7"/>
<path d="M416.206 165.604C417.441 163.032 417.836 160.137 417.334 157.328C416.601 153.28 414.085 150.388 411.033 147.885C407.085 144.655 402.547 142.439 398.059 140.139C394.999 138.575 391.879 137.118 389.033 135.159C387.831 134.375 386.78 133.381 385.931 132.224C385.795 132.063 385.717 131.86 385.711 131.649C385.704 131.437 385.769 131.23 385.894 131.06C387.022 129.146 388.574 127.836 390.799 127.365C393.357 126.826 395.941 126.97 398.516 127.06C409.161 127.432 419.814 127.585 430.464 127.624C437.103 127.644 443.72 127.249 450.25 125.919C455.2 124.912 459.952 123.382 464.107 120.383C469.074 116.797 471.604 111.87 472.157 105.838C472.224 105.114 472.058 104.846 471.277 104.823C469.342 104.767 467.413 104.567 465.478 104.488C454.901 104.065 444.324 104.389 433.741 104.536C427.395 104.632 421.049 104.691 414.7 104.536C405.674 104.327 396.626 104.082 387.651 105.503C382.276 106.348 377.215 107.949 372.824 111.343C370.073 113.419 367.523 115.749 365.209 118.302C362.27 121.629 359.779 125.239 358.42 129.521C356.141 136.678 358.253 142.724 364.475 146.907C366.124 147.986 367.845 148.95 369.626 149.794C373.856 151.865 378.301 153.548 382.445 155.837C384.966 157.229 387.35 158.814 389.194 161.08C389.451 161.398 389.778 161.678 389.631 162.207C388.952 164.663 387.708 166.667 385.324 167.803C383.854 168.476 382.265 168.851 380.648 168.905C377.85 169.051 375.058 168.789 372.266 168.727C362.546 168.505 352.829 168.347 343.11 168.634C342.354 168.657 341.982 168.899 341.652 169.576C340.287 172.502 339.271 175.557 338.321 178.63C337.408 181.455 336.701 184.342 336.205 187.269C336.129 187.74 335.751 188.419 336.806 188.478C342.461 188.788 348.113 189.18 353.78 189.304C361.418 189.468 369.056 189.47 376.671 188.695C382.851 188.064 388.929 186.981 394.847 185.031C404.857 181.71 411.818 175.064 416.206 165.604Z" fill="#2671B7"/>
<path d="M252.526 104.998C243.918 104.891 235.321 104.823 226.707 104.637C225.317 104.609 224.696 105.063 224.169 106.281C221.941 111.526 220.22 116.941 218.618 122.395C213.49 139.97 208.436 157.557 203.308 175.126C201.193 182.364 199.078 189.611 196.502 196.703C196.405 197.021 196.227 197.307 195.984 197.534C195.742 197.76 195.444 197.919 195.12 197.994C186.078 200.813 176.756 201.741 167.361 202.223C162.673 202.462 157.977 202.623 153.349 203.516C147.242 204.697 142.743 207.832 140.572 213.861C139.345 217.261 138.879 220.798 138.569 224.372C138.516 224.99 138.724 225.181 139.325 225.198C141.046 225.249 142.763 225.359 144.484 225.432C150.407 225.689 156.33 225.714 163.556 225.753C172.018 225.658 181.808 225.68 191.561 224.626C199.14 223.8 205.923 221.114 211.773 216.192C216.616 212.116 220.209 207.06 223.168 201.515C227.438 193.515 230.32 184.98 232.794 176.307C237.084 161.246 241.233 146.146 246.358 131.339C249.198 123.131 251.863 114.855 253.584 106.317C253.846 105.018 253.846 105.018 252.526 104.998Z" fill="#2671B7"/>
<path d="M353.974 43.6196C355.495 43.3744 357.018 43.1601 358.53 42.8754C373.1 40.1215 387.708 37.5931 402.425 35.7214C402.958 35.6538 403.187 35.7214 403.271 36.3106C403.607 38.8277 403.971 41.342 404.38 43.8507C404.614 45.2996 404.639 46.7907 405.065 48.2903C423.923 36.708 442.88 25.4894 461.224 13.2898C455.282 12.2299 449.415 11.2913 443.543 10.3752C434.555 8.97145 425.565 7.57899 416.573 6.1978C408.957 5.04493 401.342 3.9428 393.727 2.83784C387.947 1.99222 382.163 1.18605 376.386 0.362976C376.231 0.427807 376.022 0.388345 375.946 0.596933C384.827 7.67201 393.705 14.749 402.58 21.8278C402.803 22.0283 403.065 22.1797 403.349 22.272C403.634 22.3643 403.935 22.3954 404.233 22.3634C406.264 22.1632 408.303 22.0307 410.339 21.8785C415.695 21.4726 421.054 21.0696 426.416 20.6693L433.781 20.1224C433.428 20.5199 433.062 20.5424 432.74 20.6524C417.32 25.8868 401.644 30.2559 385.953 34.577C375.297 37.5142 364.646 40.4654 354 43.4307C354.011 43.4932 354.011 43.5571 354 43.6196H353.974Z" fill="#2671B7"/>
<path d="M363.107 34.4277C364.059 34.261 365.001 34.0399 365.928 33.7652C369.067 32.7871 372.195 31.7921 375.368 30.9014C381.878 29.0974 388.427 27.4146 394.813 25.1934C396.023 24.7734 396.037 24.7199 395.055 23.8742C388.072 17.8703 380.905 12.0918 373.619 6.45714C372.559 5.64201 371.244 5.22679 369.908 5.28454C367.278 5.33033 364.71 6.09246 362.481 7.48881C352.116 13.7295 352.198 25.0609 357.827 32.3756C359.187 34.1486 360.905 34.8307 363.107 34.4277Z" fill="black"/>
<path d="M441.311 33.3368C431.978 38.6924 422.854 44.3976 413.78 50.1816C411.186 51.8334 408.602 53.4993 406.103 55.2977C405.564 55.6839 405.409 55.915 406.165 56.2476C408.684 57.3526 411.186 58.5026 413.78 59.3821C417.828 60.7689 421.937 61.6173 426.213 60.6561C436.367 58.3786 444.042 48.7779 444.248 38.0779C444.255 36.8557 444.117 35.6369 443.836 34.4474C443.269 32.2487 443.255 32.2205 441.311 33.3368Z" fill="black"/>
<path d="M479.301 212.395C479.38 210.673 479.301 210.496 477.445 210.301C477.558 210.053 477.629 209.898 477.702 209.737C479.064 206.806 478.241 204.683 475.231 203.477C472.955 202.569 470.558 202.411 468.284 203.215C460.858 205.836 456.184 211.082 454.091 218.63C453.743 219.919 453.769 221.28 454.168 222.554C455.279 226.3 459.332 228.023 462.869 226.196C465.625 224.787 467.709 222.532 469.754 220.277C470.036 219.952 470.278 219.547 470.772 219.304C470.772 221.088 470.727 222.774 471.353 224.378C472.016 226.069 473.288 226.805 475.065 226.613C476.909 226.413 478.32 225.415 479.64 224.223C479.756 224.141 479.842 224.024 479.885 223.888C479.927 223.752 479.923 223.606 479.874 223.473C478.7 219.831 479.132 216.102 479.301 212.395ZM465.797 219.299C464.55 220.068 463.636 219.744 463.097 218.363C462.581 217.035 462.734 215.674 463.151 214.366C464.107 211.383 465.836 208.863 468.028 206.656C468.829 205.847 469.328 205.986 469.72 207.082C470.383 208.937 469.963 210.659 469.02 212.314C468.738 212.821 468.112 213.393 468.456 213.912C468.882 214.571 469.692 214.149 470.352 214.087C470.848 214.042 471.299 213.737 472.022 213.898C470.01 215.922 468.124 217.864 465.797 219.299Z" fill="black"/>
<path d="M423.413 192.766C422.809 192.721 422.197 192.749 421.588 192.74C418.104 192.681 415.831 194.15 414.644 197.577C412.872 202.674 411.33 207.829 409.945 213.038C409.071 216.169 408.378 219.347 407.869 222.557C407.471 225.274 408.377 226.402 411.096 226.503C412.241 226.546 413.389 226.503 414.537 226.503C415.611 226.503 416.686 226.472 417.76 226.503C421.427 226.63 423.466 224.463 424.891 221.469C425.525 220.133 425.144 219.634 423.695 219.848C422.033 220.093 420.389 220.449 418.731 220.73C416.209 221.156 416.24 221.156 416.948 218.709C418.64 212.869 421.201 207.358 423.351 201.69C424.146 199.584 424.913 197.462 425.345 195.257C425.655 193.687 425.029 192.887 423.413 192.766Z" fill="black"/>
<path d="M445.111 205.21C444.079 205.509 443.096 205.954 442.191 206.532C440.598 207.55 440.592 207.68 442.045 208.923C445.187 211.615 445.957 216.533 443.737 219.826C443.128 220.73 442.389 221.494 441.289 221.799C439.069 222.427 436.801 221.012 436.212 218.366C435.273 214.109 436.406 210.284 439.142 206.947C440.722 205.019 442.755 203.824 445.3 203.618C445.656 203.594 446.009 203.53 446.352 203.426C446.53 203.39 446.691 203.294 446.808 203.154C446.925 203.014 446.991 202.839 446.995 202.657C446.995 202.189 446.651 202.093 446.304 201.977C445.432 201.695 444.527 201.78 443.729 201.724C436.313 201.664 428.348 208.531 427.406 215.803C426.978 219.127 427.44 222.188 430.613 224.186C438.821 229.353 449.793 224.161 451.601 216.294C452.345 213.044 452.469 209.904 450.472 207.028C449.127 205.123 447.361 204.559 445.111 205.21Z" fill="black"/>
<path d="M395.219 42.8304C391.693 43.4251 388.167 44.0565 384.656 44.6569C384.339 44.705 384.036 44.8173 383.765 44.987C383.494 45.1567 383.26 45.3801 383.079 45.6435C388.077 47.8985 393.024 50.1309 397.946 52.4085C398.82 52.8116 398.978 52.5663 398.925 51.7292C398.802 49.4453 398.54 47.1711 398.141 44.9191C397.692 42.4414 397.692 42.4132 395.219 42.8304Z" fill="black"/>
<path d="M353.128 43.8225C353.129 43.7535 353.136 43.6847 353.148 43.6168L352.192 43.8648C352.525 44.0198 352.846 44.158 353.128 43.8225Z" fill="#A3C2E0"/>
<path d="M376.381 0.362974C376.155 0.179755 375.873 0.0613674 375.656 0.272774C375.551 0.377068 375.766 0.55465 375.938 0.596931C375.912 0.193849 376.149 0.284049 376.381 0.362974Z" fill="#8FB5D9"/>
<path d="M376.381 0.362954C376.149 0.284029 375.912 0.193829 375.941 0.596911C376.017 0.388323 376.225 0.441879 376.381 0.362954Z" fill="#8FB5D9"/>
<path d="M353.193 43.7605C353.168 43.8 353.145 43.8225 353.12 43.8225C353.402 43.7915 353.743 43.893 353.983 43.6196C353.923 43.5745 353.904 43.5322 353.926 43.4927C353.949 43.4533 353.971 43.4307 353.991 43.4307L353.145 43.6168C353.201 43.6703 353.218 43.7154 353.193 43.7605Z" fill="#4686C2"/>
<path d="M353.926 43.4927C353.904 43.5322 353.926 43.5745 353.983 43.6196C353.994 43.5571 353.994 43.4932 353.983 43.4307C353.974 43.4307 353.949 43.4533 353.926 43.4927Z" fill="#4686C2"/>
<path d="M353.193 43.7605C353.218 43.7154 353.193 43.6703 353.139 43.6168C353.127 43.6847 353.12 43.7535 353.12 43.8225C353.145 43.8225 353.168 43.8 353.193 43.7605Z" fill="#4686C2"/>
<path d="M496.642 216.178C496.876 216.271 496.831 216.516 496.924 216.686C496.974 216.446 497.152 216.116 496.642 216.178Z" fill="#C7C7C7"/>
<path d="M496.974 215.854C496.887 215.769 496.692 216.003 496.642 216.178C497.152 216.116 496.96 216.446 496.924 216.686C497.087 216.415 497.225 216.105 496.974 215.854Z" fill="#C7C7C7"/>
</g>
<defs>
<clipPath id="clip0_557_28">
<rect width="506" height="227" fill="white" transform="translate(0 0.160034)"/>
</clipPath>
</defs>
</svg>
